{"title":"The.Ultimate.Fighter.Nations.Canada.vs.Australia.S01E06.HDTV.x26","uid":9672350,"size":550651345,"categoryP":"video","categoryS":"tv_shows","magnet":"?xt=urn:btih:8e08bd50b91b973b45e12ba44b95069231c3cc11&amp;dn=The.Ultimate.Fighter.Nations.Canada.vs.Australia.S01E06.HDTV.x26&amp;tr=udp%3A%2F%2Ftracker.openbittorrent.com%3A80&amp;tr=udp%3A%2F%2Fopen.demonii.com%3A1337&amp;tr=udp%3A%2F%2Ftracker.coppersurfer.tk%3A6969&amp;tr=udp%3A%2F%2Fexodus.desync.com%3A6969","seeders":3,"leechers":0,"uploader":".SceNe.","files":1,"time":1393489424,"description":"General\nComplete name : ~/The.Ultimate.Fighter.Nations.Canada.vs.Australia.S01E06.HDTV.x264-STRAJOW.mp4\nFormat : MPEG-4\nFormat profile : Base Media\nCodec ID : isom\nFile size : 525 MiB\nDuration : 42mn 49s\nOverall bit rate : 1 715 Kbps\nWriting application : Lavf53.31.100\n\nVideo\nID : 1\nFormat : AVC\nFormat/Info : Advanced Video Codec\nFormat profile : &lt;a class=&quot;__cf_email__&quot; href=&quot;/cdn-cgi/l/email-protection&quot; data-cfemail=&quot;d499b5bdba9498e0fae5&quot;&gt;[email&amp;#160;protected]&lt;/a&gt;&lt;script cf-hash='f9e31' type=&quot;text/javascript&quot;&gt;\n/* &lt;![CDATA[ */!function(){try{var t=&quot;currentScript&quot;in document?document.currentScript:function(){for(var t=document.getElementsByTagName(&quot;script&quot;),e=t.length;e--;)if(t[e].getAttribute(&quot;cf-hash&quot;))return t[e]}();if(t&amp;&amp;t.previousSibling){var e,r,n,i,c=t.previousSibling,a=c.getAttribute(&quot;data-cfemail&quot;);if(a){for(e=&quot;&quot;,r=parseInt(a.substr(0,2),16),n=2;a.length-n;n+=2)i=parseInt(a.substr(n,2),16)^r,e+=String.fromCharCode(i);e=document.createTextNode(e),c.parentNode.replaceChild(e,c)}}}catch(u){}}();/* ]]&gt; */&lt;/script&gt;\nFormat settings, CABAC : Yes\nFormat settings, ReFrames : 1 frame\nCodec ID : avc1\nCodec ID/Info : Advanced Video Coding\nDuration : 42mn 49s\nBit rate : 1 585 Kbps\nWidth : 720 pixels\nHeight : 404 pixels\nDisplay aspect ratio : 16:9\nFrame rate mode : Variable\nFrame rate : 29.970 fps\nMinimum frame rate : 29.970 fps\nMaximum frame rate : 30.000 fps\nColor space : YUV\nChroma subsampling : 4:2:0\nBit depth : 8 bits\nScan type : Progressive\nBits/(Pixel*Frame) : 0.182\nStream size : 486 MiB (92%)\n\nAudio\nID : 2\nFormat : AAC\nFormat/Info : Advanced Audio Codec\nFormat profile : LC\nCodec ID : 40\nDuration : 42mn 49s\nDuration_LastFrame : -21ms\nBit rate mode : Constant\nBit rate : 122 Kbps\nChannel(s) : 2 channels\nChannel positions : Front: L R\nSampling rate : 48.0 KHz\nCompression mode : Lossy\nStream size : 37.5 MiB (7%)\nLanguage : English","torrent":{"xt":"urn:btih:8e08bd50b91b973b45e12ba44b95069231c3cc11","amp;dn":"The.Ultimate.Fighter.Nations.Canada.vs.Australia.S01E06.HDTV.x26","amp;tr":["udp%3A%2F%2Ftracker.openbittorrent.com%3A80","udp%3A%2F%2Fopen.demonii.com%3A1337","udp%3A%2F%2Ftracker.coppersurfer.tk%3A6969","udp%3A%2F%2Fexodus.desync.com%3A6969"],"infoHash":"8e08bd50b91b973b45e12ba44b95069231c3cc11","infoHashBuffer":{"type":"Buffer","data":[142,8,189,80,185,27,151,59,69,225,43,164,75,149,6,146,49,195,204,17]},"announce":[],"urlList":[]}}